#ifndef TUNE_PLAYER_HPP
#define TUNE_PLAYER_HPP

#include "mbed.h"

#include "pwm_tone.h"

class TunePlayer {
private:
  int prevTime, noteDuration, noteIndex;

  bool resting = false;

  PwmOut buzzer;

  int songLength = 203;

  /**const int songNotes[31] = {
  NOTE_B4, NOTE_B5, NOTE_FS5, NOTE_DS5,
  NOTE_B5, NOTE_FS5, NOTE_DS5, NOTE_C5,
  NOTE_C6, NOTE_G6, NOTE_E6, NOTE_C6, NOTE_G6, NOTE_E6,
  
  NOTE_B4, NOTE_B5, NOTE_FS5, NOTE_DS5, NOTE_B5,
  NOTE_FS5, NOTE_DS5, NOTE_DS5, NOTE_E5, NOTE_F5,
  NOTE_F5, NOTE_FS5, NOTE_G5, NOTE_G5, NOTE_GS5, NOTE_A5, NOTE_B5
};

const int songDurations[31] = {
  16, 16, 16, 16,
  32, 16, 8, 16,
  16, 16, 16, 32, 16, 8,
  
  16, 16, 16, 16, 32,
  16, 8, 32, 32, 32,
  32, 32, 32, 32, 32, 16, 8
};**/

const int songNotes[203] = {
  NOTE_E4, NOTE_G4, NOTE_A4, NOTE_A4, REST,
  NOTE_A4, NOTE_B4, NOTE_C5, NOTE_C5, REST,
  NOTE_C5, NOTE_D5, NOTE_B4, NOTE_B4, REST,
  NOTE_A4, NOTE_G4, NOTE_A4, REST,
  
  NOTE_E4, NOTE_G4, NOTE_A4, NOTE_A4, REST,
  NOTE_A4, NOTE_B4, NOTE_C5, NOTE_C5, REST,
  NOTE_C5, NOTE_D5, NOTE_B4, NOTE_B4, REST,
  NOTE_A4, NOTE_G4, NOTE_A4, REST,
  
  NOTE_E4, NOTE_G4, NOTE_A4, NOTE_A4, REST,
  NOTE_A4, NOTE_C5, NOTE_D5, NOTE_D5, REST,
  NOTE_D5, NOTE_E5, NOTE_F5, NOTE_F5, REST,
  NOTE_E5, NOTE_D5, NOTE_E5, NOTE_A4, REST,
  
  NOTE_A4, NOTE_B4, NOTE_C5, NOTE_C5, REST,
  NOTE_D5, NOTE_E5, NOTE_A4, REST,
  NOTE_A4, NOTE_C5, NOTE_B4, NOTE_B4, REST,
  NOTE_C5, NOTE_A4, NOTE_B4, REST,
  
  NOTE_A4, NOTE_A4,
  //Repeat of first part
  NOTE_A4, NOTE_B4, NOTE_C5, NOTE_C5, REST,
  NOTE_C5, NOTE_D5, NOTE_B4, NOTE_B4, REST,
  NOTE_A4, NOTE_G4, NOTE_A4, REST,
  
  NOTE_E4, NOTE_G4, NOTE_A4, NOTE_A4, REST,
  NOTE_A4, NOTE_B4, NOTE_C5, NOTE_C5, REST,
  NOTE_C5, NOTE_D5, NOTE_B4, NOTE_B4, REST,
  NOTE_A4, NOTE_G4, NOTE_A4, REST,
  
  NOTE_E4, NOTE_G4, NOTE_A4, NOTE_A4, REST,
  NOTE_A4, NOTE_C5, NOTE_D5, NOTE_D5, REST,
  NOTE_D5, NOTE_E5, NOTE_F5, NOTE_F5, REST,
  NOTE_E5, NOTE_D5, NOTE_E5, NOTE_A4, REST,
  
  NOTE_A4, NOTE_B4, NOTE_C5, NOTE_C5, REST,
  NOTE_D5, NOTE_E5, NOTE_A4, REST,
  NOTE_A4, NOTE_C5, NOTE_B4, NOTE_B4, REST,
  NOTE_C5, NOTE_A4, NOTE_B4, REST,
  //End of Repeat
  
  NOTE_E5, REST, REST, NOTE_F5, REST, REST,
  NOTE_E5, NOTE_E5, REST, NOTE_G5, REST, NOTE_E5, NOTE_D5, REST, REST,
  NOTE_D5, REST, REST, NOTE_C5, REST, REST,
  NOTE_B4, NOTE_C5, REST, NOTE_B4, REST, NOTE_A4,
  
  NOTE_E5, REST, REST, NOTE_F5, REST, REST,
  NOTE_E5, NOTE_E5, REST, NOTE_G5, REST, NOTE_E5, NOTE_D5, REST, REST,
  NOTE_D5, REST, REST, NOTE_C5, REST, REST,
  NOTE_B4, NOTE_C5, REST, NOTE_B4, REST, NOTE_A4
};

const int songDurations[203] = {
  8, 8, 4, 8, 8,
  8, 8, 4, 8, 8,
  8, 8, 4, 8, 8,
  8, 8, 4, 8,
  
  8, 8, 4, 8, 8,
  8, 8, 4, 8, 8,
  8, 8, 4, 8, 8,
  8, 8, 4, 8,
  
  8, 8, 4, 8, 8,
  8, 8, 4, 8, 8,
  8, 8, 4, 8, 8,
  8, 8, 8, 4, 8,
  
  8, 8, 4, 8, 8,
  4, 8, 4, 8,
  8, 8, 4, 8, 8,
  8, 8, 4, 4,
  
  4, 8,
  //Repeat of First Part
  8, 8, 4, 8, 8,
  8, 8, 4, 8, 8,
  8, 8, 4, 8,
  
  8, 8, 4, 8, 8,
  8, 8, 4, 8, 8,
  8, 8, 4, 8, 8,
  8, 8, 4, 8,
  
  8, 8, 4, 8, 8,
  8, 8, 4, 8, 8,
  8, 8, 4, 8, 8,
  8, 8, 8, 4, 8,
  
  8, 8, 4, 8, 8,
  4, 8, 4, 8,
  8, 8, 4, 8, 8,
  8, 8, 4, 4,
  //End of Repeat
  
  4, 8, 4, 4, 8, 4,
  8, 8, 8, 8, 8, 8, 8, 8, 4,
  4, 8, 4, 4, 8, 4,
  8, 8, 8, 8, 8, 2,
  
  4, 8, 4, 4, 8, 4,
  8, 8, 8, 8, 8, 8, 8, 8, 4,
  4, 8, 4, 4, 8, 4,
  8, 8, 8, 8, 8, 2
};


public:
  TunePlayer();
  void updatePlayer(int ticks);
  void playTune(int frequency, int duration);
};

#endif